<svg xmlns="http://www.w3.org/2000/svg" xmlns:xlink="http://www.w3.org/1999/xlink" xmlns:lucid="lucid" width="2303" height="372.67"><g transform="translate(-858.5 -921.4753362352685)" lucid:page-tab-id="zok3yUf69dyn"><path d="M880 952.48a6 6 0 0 1 6-6h148a6 6 0 0 1 6 6v113.33a6 6 0 0 1-6 6H886a6 6 0 0 1-6-6z" stroke="#000" stroke-opacity="0" stroke-width="3" fill="#635dff"/><use xlink:href="#a" transform="matrix(1,0,0,1,888,952.7420029019352) translate(2 21.4625)"/><use xlink:href="#b" transform="matrix(1,0,0,1,888,952.7420029019352) translate(72 43.0625)"/><use xlink:href="#c" transform="matrix(1,0,0,1,888,952.7420029019352) translate(56.37037037037041 87.77361111111102)"/><path d="M880 1155.14a6 6 0 0 1 6-6h148a6 6 0 0 1 6 6v108a6 6 0 0 1-6 6H886a6 6 0 0 1-6-6z" stroke="#000" stroke-opacity="0" stroke-width="3" fill="#635dff"/><use xlink:href="#d" transform="matrix(1,0,0,1,888,1155.142002901935) translate(7 17.775)"/><use xlink:href="#b" transform="matrix(1,0,0,1,888,1155.142002901935) translate(72 39.375)"/><use xlink:href="#e" transform="matrix(1,0,0,1,888,1155.142002901935) translate(56.37037037037041 84.08611111111102)"/><path d="M1080 1055.14a6 6 0 0 1 6-6h148a6 6 0 0 1 6 6v108a6 6 0 0 1-6 6h-148a6 6 0 0 1-6-6z" stroke="#000" stroke-opacity="0" stroke-width="3" fill="#dedeff"/><use xlink:href="#f" transform="matrix(1,0,0,1,1088,1055.142002901935) translate(-3 18.66666666666673)"/><use xlink:href="#b" transform="matrix(1,0,0,1,1088,1055.142002901935) translate(72 40.26666666666673)"/><use xlink:href="#g" transform="matrix(1,0,0,1,1088,1055.142002901935) translate(55.13302469135806 84.97777777777776)"/><path d="M1149.95 1008.82l1.9.46 1.8.75 1.68 1.02 1.5 1.27 1.26 1.5 1.02 1.66.75 1.8.45 1.9.15 1.94v11.64h-.94v-11.6l-.15-1.82-.42-1.76-.7-1.67-.94-1.53-1.17-1.38-1.38-1.18-1.54-.95-1.67-.7-1.76-.4-1.82-.15h-36.53v-.95h36.57zm-109.45.8v-.95h50.95v.95z" stroke="#333" stroke-width=".05" fill="#333"/><path d="M1040.5 1009.62h-.5v-.95h.5z" fill="#333"/><path stroke="#333" stroke-width=".05" fill="#333"/><path d="M1160 1047.52l-4.63-14.26h9.27z" fill="#333"/><path d="M1160 1049.06l-5.3-16.28h10.6zm-3.98-15.33L1160 1046l3.98-12.27z" stroke="#333" stroke-width=".05" fill="#333"/><use xlink:href="#h" transform="matrix(1,0,0,1,1091.4533528835764,998.3420029019352) translate(0.005000000000000782 14.4)"/><path d="M1081.08 1209.62h-40.58v-.95h40.58zm79.4-12.46l-.16 1.93-.45 1.9-.75 1.8-1.03 1.67-1.28 1.5-1.5 1.27-1.66 1.02-1.8.75-1.9.46-1.94.16h-46.94v-.95h46.9l1.82-.15 1.76-.42 1.67-.7 1.54-.94 1.38-1.17 1.17-1.38.95-1.55.7-1.67.4-1.76.16-1.82v-11.6h.94z" stroke="#333" stroke-width=".05" fill="#333"/><path d="M1040.5 1209.62h-.5v-.95h.5z" fill="#333"/><path stroke="#333" stroke-width=".05" fill="#333"/><path d="M1164.63 1185.03h-9.27l4.64-14.27z" fill="#333"/><path d="M1165.3 1185.5h-10.6l5.3-16.28zm-9.28-.95h7.96l-3.98-12.25z" stroke="#333" stroke-width=".05" fill="#333"/><use xlink:href="#i" transform="matrix(1,0,0,1,1081.0774705960791,1198.342002901935) translate(0.005000000000000782 14.4)"/><path d="M1300 1055.14a6 6 0 0 1 6-6h148a6 6 0 0 1 6 6v108a6 6 0 0 1-6 6h-148a6 6 0 0 1-6-6z" stroke="#000" stroke-opacity="0" stroke-width="3" fill="#dedeff"/><use xlink:href="#j" transform="matrix(1,0,0,1,1308,1055.142002901935) translate(-3 18.66666666666673)"/><use xlink:href="#b" transform="matrix(1,0,0,1,1308,1055.142002901935) translate(72 40.26666666666673)"/><use xlink:href="#k" transform="matrix(1,0,0,1,1308,1055.142002901935) translate(55.13302469135806 84.97777777777776)"/><path d="M1254.5 1109.62h-14v-.95h14zm29.12 0h-9.12v-.95h9.12z" stroke="#333" stroke-width=".05" fill="#333"/><path d="M1240.5 1109.62h-.5v-.95h.5z" fill="#333"/><path stroke="#333" stroke-width=".05" fill="#333"/><path d="M1298.38 1109.14l-14.26 4.64v-9.27z" fill="#333"/><path d="M1299.92 1109.14l-16.28 5.3v-10.6zm-15.33 3.98l12.25-3.98-12.26-3.98z" stroke="#333" stroke-width=".05" fill="#333"/><use xlink:href="#i" transform="matrix(1,0,0,1,1254.502931687104,1098.342002901935) translate(0.005000000000000782 14.4)"/><path d="M1736.27 1055.14a6 6 0 0 1 6-6h148a6 6 0 0 1 6 6v108a6 6 0 0 1-6 6h-148a6 6 0 0 1-6-6z" stroke="#000" stroke-opacity="0" stroke-width="3" fill="#dedeff"/><use xlink:href="#l" transform="matrix(1,0,0,1,1744.2734016222275,1055.142002901935) translate(-8 18.66666666666673)"/><use xlink:href="#b" transform="matrix(1,0,0,1,1744.2734016222275,1055.142002901935) translate(72 40.26666666666673)"/><use xlink:href="#m" transform="matrix(1,0,0,1,1744.2734016222275,1055.142002901935) translate(57.737962962962996 84.97777777777776)"/><path d="M1473.88 1109.62h-13.38v-.95h13.38zm29.74 0h-9.74v-.95h9.74z" stroke="#333" stroke-width=".05" fill="#333"/><path d="M1460.5 1109.62h-.5v-.95h.5z" fill="#333"/><path stroke="#333" stroke-width=".05" fill="#333"/><path d="M1518.38 1109.14l-14.26 4.64v-9.27z" fill="#333"/><path d="M1519.92 1109.14l-16.28 5.3v-10.6zm-15.33 3.98l12.25-3.98-12.26-3.98z" stroke="#333" stroke-width=".05" fill="#333"/><use xlink:href="#i" transform="matrix(1,0,0,1,1473.8787286227605,1098.342002901935) translate(0.005000000000000782 14.4)"/><path d="M1956.27 1055.14a6 6 0 0 1 6-6h148a6 6 0 0 1 6 6v108a6 6 0 0 1-6 6h-148a6 6 0 0 1-6-6z" stroke="#000" stroke-opacity="0" stroke-width="3" fill="#dedeff"/><use xlink:href="#n" transform="matrix(1,0,0,1,1964.2734016222275,1055.142002901935) translate(-5.5 18.66666666666673)"/><use xlink:href="#b" transform="matrix(1,0,0,1,1964.2734016222275,1055.142002901935) translate(72 40.26666666666673)"/><use xlink:href="#o" transform="matrix(1,0,0,1,1964.2734016222275,1055.142002901935) translate(53.76543209876547 84.97777777777776)"/><path d="M1916.27 1109.62h-19.5v-.95h19.5zm23.62 0h-3.63v-.95h3.62z" stroke="#333" stroke-width=".05" fill="#333"/><path d="M1896.8 1109.62h-.53v-.95h.52z" fill="#333"/><path stroke="#333" stroke-width=".05" fill="#333"/><path d="M1954.65 1109.14l-14.26 4.64v-9.27z" fill="#333"/><path d="M1956.2 1109.14l-16.3 5.3v-10.6zm-15.34 3.98l12.26-3.98-12.25-3.98z" stroke="#333" stroke-width=".05" fill="#333"/><use xlink:href="#p" transform="matrix(1,0,0,1,1916.2734016222275,1098.342002901935) translate(0.005000000000000782 14.4)"/><path d="M2176.27 1055.14a6 6 0 0 1 6-6h148a6 6 0 0 1 6 6v108a6 6 0 0 1-6 6h-148a6 6 0 0 1-6-6z" stroke="#000" stroke-opacity="0" stroke-width="3" fill="#dedeff"/><use xlink:href="#q" transform="matrix(1,0,0,1,2184.2734016222275,1055.142002901935) translate(-8 18.66666666666673)"/><use xlink:href="#b" transform="matrix(1,0,0,1,2184.2734016222275,1055.142002901935) translate(72 40.26666666666673)"/><use xlink:href="#r" transform="matrix(1,0,0,1,2184.2734016222275,1055.142002901935) translate(55.13302469135806 84.97777777777776)"/><path d="M2129.55 1109.62h-12.78v-.95h12.78zm30.34 0h-10.35v-.95h10.34z" stroke="#333" stroke-width=".05" fill="#333"/><path d="M2116.8 1109.62h-.53v-.95h.52z" fill="#333"/><path stroke="#333" stroke-width=".05" fill="#333"/><path d="M2174.66 1109.14l-14.27 4.64v-9.27z" fill="#333"/><path d="M2176.2 1109.14l-16.28 5.3v-10.6zm-15.34 3.98l12.26-3.98-12.26-3.98z" stroke="#333" stroke-width=".05" fill="#333"/><use xlink:href="#s" transform="matrix(1,0,0,1,2129.555300354448,1098.342002901935) translate(0.005000000000000782 14.4)"/><path d="M2396.27 952.48a6 6 0 0 1 6-6h148a6 6 0 0 1 6 6v108a6 6 0 0 1-6 6h-148a6 6 0 0 1-6-6z" stroke="#000" stroke-opacity="0" stroke-width="10" fill="#fcce14"/><use xlink:href="#t" transform="matrix(1,0,0,1,2404.2734016222275,952.4753362352685) translate(-8 18.66666666666673)"/><use xlink:href="#b" transform="matrix(1,0,0,1,2404.2734016222275,952.4753362352685) translate(72 40.26666666666673)"/><use xlink:href="#u" transform="matrix(1,0,0,1,2404.2734016222275,952.4753362352685) translate(65.48765432098767 84.97777777777776)"/><path d="M2396.27 1155.14a6 6 0 0 1 6-6h148a6 6 0 0 1 6 6v108a6 6 0 0 1-6 6h-148a6 6 0 0 1-6-6z" stroke="#000" stroke-opacity="0" stroke-width="10" fill="#fcce14"/><use xlink:href="#t" transform="matrix(1,0,0,1,2404.2734016222275,1155.142002901935) translate(-8 18.66666666666673)"/><use xlink:href="#b" transform="matrix(1,0,0,1,2404.2734016222275,1155.142002901935) translate(72 40.26666666666673)"/><use xlink:href="#v" transform="matrix(1,0,0,1,2404.2734016222275,1155.142002901935) translate(60.2777777777778 84.97777777777776)"/><path d="M2316 1006.95h-47.7l-1.83.14-1.76.42-1.66.7-1.54.93-1.38 1.18-1.17 1.37-.94 1.54-.7 1.67-.4 1.77-.15 1.82v30.14h-.95v-30.18l.15-1.94.46-1.9.76-1.8 1.02-1.68 1.27-1.5 1.5-1.26 1.66-1.02 1.82-.75 1.9-.45 1.93-.15h47.76zm63.9 0H2336v-.95h43.9z" stroke="#333" stroke-width=".05" fill="#333"/><path d="M2256.75 1049.14h-.95v-.5h.95z" fill="#333"/><path stroke="#333" stroke-width=".05" fill="#333"/><path d="M2394.66 1006.48l-14.27 4.63v-9.26z" fill="#333"/><path d="M2396.2 1006.48l-16.28 5.28v-10.57zm-15.34 3.98l12.26-4-12.26-3.97z" stroke="#333" stroke-width=".05" fill="#333"/><use xlink:href="#h" transform="matrix(1,0,0,1,2316.0149329945557,995.6753362352686) translate(0.005000000000000782 14.4)"/><path d="M2256.75 1197.12l.14 1.83.4 1.75.7 1.67.95 1.55 1.18 1.37 1.37 1.16 1.54.95 1.67.7 1.77.42 1.82.15h41.65v.95h-41.7l-1.93-.15-1.9-.46-1.8-.74-1.68-1.02-1.5-1.28-1.26-1.5-1.02-1.65-.75-1.8-.45-1.9-.15-1.94v-27.52h.95zm123.14 11.55v.95h-49.95v-.95z" stroke="#333" stroke-width=".05" fill="#333"/><path d="M2256.75 1169.65h-.95v-.5h.95z" fill="#333"/><path stroke="#333" stroke-width=".05" fill="#333"/><path d="M2394.66 1209.14l-14.27 4.64v-9.27z" fill="#333"/><path d="M2396.2 1209.14l-16.28 5.3v-10.6zm-15.34 3.98l12.26-3.98-12.26-3.98z" stroke="#333" stroke-width=".05" fill="#333"/><use xlink:href="#h" transform="matrix(1,0,0,1,2309.9463856511356,1198.342002901935) translate(0.005000000000000782 14.4)"/><path d="M2616.27 1055.14a6 6 0 0 1 6-6h148a6 6 0 0 1 6 6v108a6 6 0 0 1-6 6h-148a6 6 0 0 1-6-6z" stroke="#000" stroke-opacity="0" stroke-width="3" fill="#008a0e"/><use xlink:href="#w" transform="matrix(1,0,0,1,2624.2734016222275,1055.142002901935) translate(-8 18.66666666666673)"/><use xlink:href="#b" transform="matrix(1,0,0,1,2624.2734016222275,1055.142002901935) translate(72 40.26666666666673)"/><use xlink:href="#x" transform="matrix(1,0,0,1,2624.2734016222275,1055.142002901935) translate(56.37037037037041 84.97777777777776)"/><path d="M2836.27 1055.14a6 6 0 0 1 6-6h148a6 6 0 0 1 6 6v108a6 6 0 0 1-6 6h-148a6 6 0 0 1-6-6z" stroke="#000" stroke-opacity="0" stroke-width="3" fill="#1071e5"/><use xlink:href="#y" transform="matrix(1,0,0,1,2844.2734016222275,1055.142002901935) translate(-8 18.66666666666673)"/><use xlink:href="#b" transform="matrix(1,0,0,1,2844.2734016222275,1055.142002901935) translate(72 40.26666666666673)"/><use xlink:href="#z" transform="matrix(1,0,0,1,2844.2734016222275,1055.142002901935) translate(58.97530864197534 84.97777777777776)"/><path d="M2686.22 1006.15l1.9.46 1.82.76 1.67 1.02 1.5 1.27 1.27 1.5 1.02 1.66.74 1.82.46 1.9.15 1.94v14.3h-.95v-14.27l-.14-1.83-.43-1.76-.7-1.66-.93-1.54-1.18-1.37-1.37-1.18-1.55-.94-1.67-.68-1.75-.43-1.82-.15h-31.65v-.95h31.7zm-129.45.8v-.95h85.84v.95z" stroke="#333" stroke-width=".05" fill="#333"/><path d="M2556.8 1006.95h-.53v-.95h.52z" fill="#333"/><path stroke="#333" stroke-width=".05" fill="#333"/><path d="M2696.27 1047.52l-4.63-14.26h9.27z" fill="#333"/><path d="M2696.27 1049.06l-5.3-16.28h10.6zm-3.98-15.33l3.97 12.26 4-12.27z" stroke="#333" stroke-width=".05" fill="#333"/><use xlink:href="#A" transform="matrix(1,0,0,1,2642.6067349555606,995.6753362352686) translate(0.004999999999999893 14.4)"/><path d="M2641.27 1209.62h-84.5v-.95h84.5zm55.48-12.46l-.15 1.93-.46 1.9-.75 1.8-1.03 1.67-1.27 1.5-1.5 1.27-1.66 1.02-1.8.75-1.9.46-1.95.16h-33.03v-.95h33l1.8-.15 1.76-.42 1.68-.7 1.55-.94 1.37-1.17 1.18-1.38.94-1.55.7-1.67.42-1.76.14-1.82v-11.6h.95z" stroke="#333" stroke-width=".05" fill="#333"/><path d="M2556.8 1209.62h-.53v-.95h.52z" fill="#333"/><path stroke="#333" stroke-width=".05" fill="#333"/><path d="M2700.9 1185.03h-9.26l4.63-14.27z" fill="#333"/><path d="M2701.56 1185.5h-10.58l5.3-16.28zm-9.27-.95h7.95l-3.98-12.25z" stroke="#333" stroke-width=".05" fill="#333"/><use xlink:href="#B" transform="matrix(1,0,0,1,2641.2734016222275,1198.342002901935) translate(0.004999999999999893 14.4)"/><path d="M2796.27 1109.62h-19.5v-.95h19.5zm23.62 0h-3.63v-.95h3.62z" stroke="#333" stroke-width=".05" fill="#333"/><path d="M2776.8 1109.62h-.53v-.95h.52z" fill="#333"/><path stroke="#333" stroke-width=".05" fill="#333"/><path d="M2834.66 1109.14l-14.27 4.64v-9.27z" fill="#333"/><path d="M2836.2 1109.14l-16.28 5.3v-10.6zm-15.34 3.98l12.26-3.98-12.26-3.98z" stroke="#333" stroke-width=".05" fill="#333"/><g><use xlink:href="#h" transform="matrix(1,0,0,1,2796.2734016222275,1098.342002901935) translate(0.005000000000000782 14.4)"/></g><path d="M2476.27 1066.97v1.95m0 3.88v3.9m0 3.87v3.9m0 3.88v3.88m0 3.9v3.87m0 3.9v3.87m0 3.9v3.87m0 3.9v3.87m0 3.9v1.94" stroke="#333" fill="none"/><path d="M2476.75 1067h-.95v-.53h.95z" stroke="#333" stroke-width=".05" fill="#333"/><path d="M2486.27 1129.14h-20M2476.27 1149.14v-20" stroke="#333" fill="#fff"/><path d="M1520 1055.14a6 6 0 0 1 6-6h148a6 6 0 0 1 6 6v108a6 6 0 0 1-6 6h-148a6 6 0 0 1-6-6z" stroke="#000" stroke-opacity="0" stroke-width="3" fill="#dedeff"/><g><use xlink:href="#C" transform="matrix(1,0,0,1,1528,1055.142002901935) translate(-0.5 18.66666666666673)"/><use xlink:href="#b" transform="matrix(1,0,0,1,1528,1055.142002901935) translate(72 40.26666666666673)"/><use xlink:href="#D" transform="matrix(1,0,0,1,1528,1055.142002901935) translate(56.37037037037041 84.97777777777776)"/></g><path d="M1698.14 1109.62h-17.64v-.95h17.64zm21.75 0h-1.76v-.95h1.75z" stroke="#333" stroke-width=".05" fill="#333"/><path d="M1680.5 1109.62h-.5v-.95h.5z" fill="#333"/><path stroke="#333" stroke-width=".05" fill="#333"/><path d="M1734.65 1109.14l-14.26 4.64v-9.27z" fill="#333"/><path d="M1736.2 1109.14l-16.3 5.3v-10.6zm-15.34 3.98l12.26-3.98-12.25-3.98z" stroke="#333" stroke-width=".05" fill="#333"/><g><use xlink:href="#h" transform="matrix(1,0,0,1,1698.1367008111138,1098.342002901935) translate(0.005000000000000782 14.4)"/></g><path d="M3021.27 1109.62h-24.5v-.95h24.5zm18.62-1.9h-8.63v-.96h8.62z" stroke="#333" stroke-width=".05" fill="#333"/><path d="M2996.8 1109.62h-.53v-.95h.52z" fill="#333"/><path stroke="#333" stroke-width=".05" fill="#333"/><path d="M3054.66 1107.24l-14.27 4.63v-9.27z" fill="#333"/><path d="M3056.2 1107.24l-16.28 5.3v-10.6zm-15.34 3.98l12.26-3.98-12.26-3.98z" stroke="#333" stroke-width=".05" fill="#333"/><g><use xlink:href="#E" transform="matrix(1,0,0,1,3021.2734016222275,1097.3898355097847) translate(0.004999999999999893 14.4)"/></g><path d="M3056.27 1077.8a6 6 0 0 1 6-6H3134a6 6 0 0 1 6 6v58.87a6 6 0 0 1-6 6h-71.73a6 6 0 0 1-6-6z" stroke="#000" stroke-opacity="0" stroke-width="3" fill="#ffe342"/><g><use xlink:href="#F" transform="matrix(1,0,0,1,3060.459731541116,1075.351569423505) translate(8.185185185185198 40.62222222222221)"/></g><defs><path fill="#333" d="M101-251c68 0 85 55 85 127S166 4 100 4C33 4 14-52 14-124c0-73 17-127 87-127zm-1 229c47 0 54-49 54-102s-4-102-53-102c-51 0-55 48-55 102 0 53 5 102 54 102" id="G"/><path fill="#333" d="M33 0v-38h34V0H33" id="H"/><path fill="#333" d="M27 0v-27h64v-190l-56 39v-29l58-41h29v221h61V0H27" id="I"/><path fill="#333" d="M54-142c48-35 137-8 131 61C196 18 31 33 14-55l32-4c7 23 22 37 52 37 35-1 51-22 54-58 4-55-73-65-99-34H22l8-134h141v27H59" id="J"/><g id="a"><use transform="matrix(0.05,0,0,0.05,0,0)" xlink:href="#G"/><use transform="matrix(0.05,0,0,0.05,10,0)" xlink:href="#H"/><use transform="matrix(0.05,0,0,0.05,15,0)" xlink:href="#H"/><use transform="matrix(0.05,0,0,0.05,20,0)" xlink:href="#H"/><use transform="matrix(0.05,0,0,0.05,25,0)" xlink:href="#H"/><use transform="matrix(0.05,0,0,0.05,30,0)" xlink:href="#H"/><use transform="matrix(0.05,0,0,0.05,35,0)" xlink:href="#H"/><use transform="matrix(0.05,0,0,0.05,40,0)" xlink:href="#H"/><use transform="matrix(0.05,0,0,0.05,45,0)" xlink:href="#H"/><use transform="matrix(0.05,0,0,0.05,50,0)" xlink:href="#H"/><use transform="matrix(0.05,0,0,0.05,55,0)" xlink:href="#H"/><use transform="matrix(0.05,0,0,0.05,60,0)" xlink:href="#H"/><use transform="matrix(0.05,0,0,0.05,65,0)" xlink:href="#H"/><use transform="matrix(0.05,0,0,0.05,70,0)" xlink:href="#H"/><use transform="matrix(0.05,0,0,0.05,75,0)" xlink:href="#H"/><use transform="matrix(0.05,0,0,0.05,80,0)" xlink:href="#H"/><use transform="matrix(0.05,0,0,0.05,85,0)" xlink:href="#H"/><use transform="matrix(0.05,0,0,0.05,90,0)" xlink:href="#H"/><use transform="matrix(0.05,0,0,0.05,95,0)" xlink:href="#H"/><use transform="matrix(0.05,0,0,0.05,100,0)" xlink:href="#H"/><use transform="matrix(0.05,0,0,0.05,105,0)" xlink:href="#H"/><use transform="matrix(0.05,0,0,0.05,110,0)" xlink:href="#H"/><use transform="matrix(0.05,0,0,0.05,115,0)" xlink:href="#H"/><use transform="matrix(0.05,0,0,0.05,120,0)" xlink:href="#I"/><use transform="matrix(0.05,0,0,0.05,130,0)" xlink:href="#J"/></g><path fill="#333" d="M205 0l-28-72H64L36 0H1l101-248h38L239 0h-34zm-38-99l-47-123c-12 45-31 82-46 123h93" id="K"/><use transform="matrix(0.13024691358024662,0,0,0.13024691358024662,0,0)" xlink:href="#K" id="c"/><g id="d"><use transform="matrix(0.05,0,0,0.05,0,0)" xlink:href="#G"/><use transform="matrix(0.05,0,0,0.05,10,0)" xlink:href="#H"/><use transform="matrix(0.05,0,0,0.05,15,0)" xlink:href="#H"/><use transform="matrix(0.05,0,0,0.05,20,0)" xlink:href="#H"/><use transform="matrix(0.05,0,0,0.05,25,0)" xlink:href="#H"/><use transform="matrix(0.05,0,0,0.05,30,0)" xlink:href="#H"/><use transform="matrix(0.05,0,0,0.05,35,0)" xlink:href="#H"/><use transform="matrix(0.05,0,0,0.05,40,0)" xlink:href="#H"/><use transform="matrix(0.05,0,0,0.05,45,0)" xlink:href="#H"/><use transform="matrix(0.05,0,0,0.05,50,0)" xlink:href="#H"/><use transform="matrix(0.05,0,0,0.05,55,0)" xlink:href="#H"/><use transform="matrix(0.05,0,0,0.05,60,0)" xlink:href="#H"/><use transform="matrix(0.05,0,0,0.05,65,0)" xlink:href="#H"/><use transform="matrix(0.05,0,0,0.05,70,0)" xlink:href="#H"/><use transform="matrix(0.05,0,0,0.05,75,0)" xlink:href="#H"/><use transform="matrix(0.05,0,0,0.05,80,0)" xlink:href="#H"/><use transform="matrix(0.05,0,0,0.05,85,0)" xlink:href="#H"/><use transform="matrix(0.05,0,0,0.05,90,0)" xlink:href="#H"/><use transform="matrix(0.05,0,0,0.05,95,0)" xlink:href="#H"/><use transform="matrix(0.05,0,0,0.05,100,0)" xlink:href="#H"/><use transform="matrix(0.05,0,0,0.05,105,0)" xlink:href="#H"/><use transform="matrix(0.05,0,0,0.05,110,0)" xlink:href="#H"/><use transform="matrix(0.05,0,0,0.05,115,0)" xlink:href="#H"/><use transform="matrix(0.05,0,0,0.05,120,0)" xlink:href="#G"/></g><path fill="#333" d="M160-131c35 5 61 23 61 61C221 17 115-2 30 0v-248c76 3 177-17 177 60 0 33-19 50-47 57zm-97-11c50-1 110 9 110-42 0-47-63-36-110-37v79zm0 115c55-2 124 14 124-45 0-56-70-42-124-44v89" id="L"/><use transform="matrix(0.13024691358024662,0,0,0.13024691358024662,0,0)" xlink:href="#L" id="e"/><path fill="#333" d="M126-127c33 6 58 20 58 59 0 88-139 92-164 29-3-8-5-16-6-25l32-3c6 27 21 44 54 44 32 0 52-15 52-46 0-38-36-46-79-43v-28c39 1 72-4 72-42 0-27-17-43-46-43-28 0-47 15-49 41l-32-3c6-42 35-63 81-64 48-1 79 21 79 65 0 36-21 52-52 59" id="M"/><g id="f"><use transform="matrix(0.05,0,0,0.05,0,0)" xlink:href="#M"/><use transform="matrix(0.05,0,0,0.05,10,0)" xlink:href="#G"/><use transform="matrix(0.05,0,0,0.05,20,0)" xlink:href="#H"/><use transform="matrix(0.05,0,0,0.05,25,0)" xlink:href="#H"/><use transform="matrix(0.05,0,0,0.05,30,0)" xlink:href="#H"/><use transform="matrix(0.05,0,0,0.05,35,0)" xlink:href="#H"/><use transform="matrix(0.05,0,0,0.05,40,0)" xlink:href="#H"/><use transform="matrix(0.05,0,0,0.05,45,0)" xlink:href="#H"/><use transform="matrix(0.05,0,0,0.05,50,0)" xlink:href="#H"/><use transform="matrix(0.05,0,0,0.05,55,0)" xlink:href="#H"/><use transform="matrix(0.05,0,0,0.05,60,0)" xlink:href="#H"/><use transform="matrix(0.05,0,0,0.05,65,0)" xlink:href="#H"/><use transform="matrix(0.05,0,0,0.05,70,0)" xlink:href="#H"/><use transform="matrix(0.05,0,0,0.05,75,0)" xlink:href="#H"/><use transform="matrix(0.05,0,0,0.05,80,0)" xlink:href="#H"/><use transform="matrix(0.05,0,0,0.05,85,0)" xlink:href="#H"/><use transform="matrix(0.05,0,0,0.05,90,0)" xlink:href="#H"/><use transform="matrix(0.05,0,0,0.05,95,0)" xlink:href="#H"/><use transform="matrix(0.05,0,0,0.05,100,0)" xlink:href="#H"/><use transform="matrix(0.05,0,0,0.05,105,0)" xlink:href="#H"/><use transform="matrix(0.05,0,0,0.05,110,0)" xlink:href="#H"/><use transform="matrix(0.05,0,0,0.05,115,0)" xlink:href="#H"/><use transform="matrix(0.05,0,0,0.05,120,0)" xlink:href="#H"/><use transform="matrix(0.05,0,0,0.05,125,0)" xlink:href="#H"/><use transform="matrix(0.05,0,0,0.05,130,0)" xlink:href="#M"/><use transform="matrix(0.05,0,0,0.05,140,0)" xlink:href="#G"/></g><path fill="#333" d="M212-179c-10-28-35-45-73-45-59 0-87 40-87 99 0 60 29 101 89 101 43 0 62-24 78-52l27 14C228-24 195 4 139 4 59 4 22-46 18-125c-6-104 99-153 187-111 19 9 31 26 39 46" id="N"/><use transform="matrix(0.13024691358024662,0,0,0.13024691358024662,0,0)" xlink:href="#N" id="g"/><g id="h"><use transform="matrix(0.05,0,0,0.05,0,0)" xlink:href="#I"/><use transform="matrix(0.05,0,0,0.05,10,0)" xlink:href="#J"/></g><g id="i"><use transform="matrix(0.05,0,0,0.05,0,0)" xlink:href="#M"/><use transform="matrix(0.05,0,0,0.05,10,0)" xlink:href="#G"/></g><path fill="#333" d="M110-160c48 1 74 30 74 79 0 53-28 85-80 85-65 0-83-55-86-122-5-90 50-162 133-122 14 7 22 21 27 39l-31 6c-5-40-67-38-82-6-9 19-15 44-15 74 11-20 30-34 60-33zm-7 138c34 0 49-23 49-58s-16-56-50-56c-29 0-50 16-49 49 1 36 15 65 50 65" id="O"/><g id="j"><use transform="matrix(0.05,0,0,0.05,0,0)" xlink:href="#O"/><use transform="matrix(0.05,0,0,0.05,10,0)" xlink:href="#G"/><use transform="matrix(0.05,0,0,0.05,20,0)" xlink:href="#H"/><use transform="matrix(0.05,0,0,0.05,25,0)" xlink:href="#H"/><use transform="matrix(0.05,0,0,0.05,30,0)" xlink:href="#H"/><use transform="matrix(0.05,0,0,0.05,35,0)" xlink:href="#H"/><use transform="matrix(0.05,0,0,0.05,40,0)" xlink:href="#H"/><use transform="matrix(0.05,0,0,0.05,45,0)" xlink:href="#H"/><use transform="matrix(0.05,0,0,0.05,50,0)" xlink:href="#H"/><use transform="matrix(0.05,0,0,0.05,55,0)" xlink:href="#H"/><use transform="matrix(0.05,0,0,0.05,60,0)" xlink:href="#H"/><use transform="matrix(0.05,0,0,0.05,65,0)" xlink:href="#H"/><use transform="matrix(0.05,0,0,0.05,70,0)" xlink:href="#H"/><use transform="matrix(0.05,0,0,0.05,75,0)" xlink:href="#H"/><use transform="matrix(0.05,0,0,0.05,80,0)" xlink:href="#H"/><use transform="matrix(0.05,0,0,0.05,85,0)" xlink:href="#H"/><use transform="matrix(0.05,0,0,0.05,90,0)" xlink:href="#H"/><use transform="matrix(0.05,0,0,0.05,95,0)" xlink:href="#H"/><use transform="matrix(0.05,0,0,0.05,100,0)" xlink:href="#H"/><use transform="matrix(0.05,0,0,0.05,105,0)" xlink:href="#H"/><use transform="matrix(0.05,0,0,0.05,110,0)" xlink:href="#H"/><use transform="matrix(0.05,0,0,0.05,115,0)" xlink:href="#H"/><use transform="matrix(0.05,0,0,0.05,120,0)" xlink:href="#H"/><use transform="matrix(0.05,0,0,0.05,125,0)" xlink:href="#H"/><use transform="matrix(0.05,0,0,0.05,130,0)" xlink:href="#O"/><use transform="matrix(0.05,0,0,0.05,140,0)" xlink:href="#G"/></g><path fill="#333" d="M30-248c118-7 216 8 213 122C240-48 200 0 122 0H30v-248zM63-27c89 8 146-16 146-99s-60-101-146-95v194" id="P"/><use transform="matrix(0.13024691358024662,0,0,0.13024691358024662,0,0)" xlink:href="#P" id="k"/><g id="l"><use transform="matrix(0.05,0,0,0.05,0,0)" xlink:href="#I"/><use transform="matrix(0.05,0,0,0.05,10,0)" xlink:href="#G"/><use transform="matrix(0.05,0,0,0.05,20,0)" xlink:href="#J"/><use transform="matrix(0.05,0,0,0.05,30,0)" xlink:href="#H"/><use transform="matrix(0.05,0,0,0.05,35,0)" xlink:href="#H"/><use transform="matrix(0.05,0,0,0.05,40,0)" xlink:href="#H"/><use transform="matrix(0.05,0,0,0.05,45,0)" xlink:href="#H"/><use transform="matrix(0.05,0,0,0.05,50,0)" xlink:href="#H"/><use transform="matrix(0.05,0,0,0.05,55,0)" xlink:href="#H"/><use transform="matrix(0.05,0,0,0.05,60,0)" xlink:href="#H"/><use transform="matrix(0.05,0,0,0.05,65,0)" xlink:href="#H"/><use transform="matrix(0.05,0,0,0.05,70,0)" xlink:href="#H"/><use transform="matrix(0.05,0,0,0.05,75,0)" xlink:href="#H"/><use transform="matrix(0.05,0,0,0.05,80,0)" xlink:href="#H"/><use transform="matrix(0.05,0,0,0.05,85,0)" xlink:href="#H"/><use transform="matrix(0.05,0,0,0.05,90,0)" xlink:href="#H"/><use transform="matrix(0.05,0,0,0.05,95,0)" xlink:href="#H"/><use transform="matrix(0.05,0,0,0.05,100,0)" xlink:href="#H"/><use transform="matrix(0.05,0,0,0.05,105,0)" xlink:href="#H"/><use transform="matrix(0.05,0,0,0.05,110,0)" xlink:href="#H"/><use transform="matrix(0.05,0,0,0.05,115,0)" xlink:href="#H"/><use transform="matrix(0.05,0,0,0.05,120,0)" xlink:href="#H"/><use transform="matrix(0.05,0,0,0.05,125,0)" xlink:href="#H"/><use transform="matrix(0.05,0,0,0.05,130,0)" xlink:href="#I"/><use transform="matrix(0.05,0,0,0.05,140,0)" xlink:href="#G"/><use transform="matrix(0.05,0,0,0.05,150,0)" xlink:href="#J"/></g><path fill="#333" d="M63-220v92h138v28H63V0H30v-248h175v28H63" id="Q"/><use transform="matrix(0.13024691358024662,0,0,0.13024691358024662,0,0)" xlink:href="#Q" id="m"/><path fill="#333" d="M101-251c82-7 93 87 43 132L82-64C71-53 59-42 53-27h129V0H18c2-99 128-94 128-182 0-28-16-43-45-43s-46 15-49 41l-32-3c6-41 34-60 81-64" id="R"/><g id="n"><use transform="matrix(0.05,0,0,0.05,0,0)" xlink:href="#I"/><use transform="matrix(0.05,0,0,0.05,10,0)" xlink:href="#R"/><use transform="matrix(0.05,0,0,0.05,20,0)" xlink:href="#O"/><use transform="matrix(0.05,0,0,0.05,30,0)" xlink:href="#H"/><use transform="matrix(0.05,0,0,0.05,35,0)" xlink:href="#H"/><use transform="matrix(0.05,0,0,0.05,40,0)" xlink:href="#H"/><use transform="matrix(0.05,0,0,0.05,45,0)" xlink:href="#H"/><use transform="matrix(0.05,0,0,0.05,50,0)" xlink:href="#H"/><use transform="matrix(0.05,0,0,0.05,55,0)" xlink:href="#H"/><use transform="matrix(0.05,0,0,0.05,60,0)" xlink:href="#H"/><use transform="matrix(0.05,0,0,0.05,65,0)" xlink:href="#H"/><use transform="matrix(0.05,0,0,0.05,70,0)" xlink:href="#H"/><use transform="matrix(0.05,0,0,0.05,75,0)" xlink:href="#H"/><use transform="matrix(0.05,0,0,0.05,80,0)" xlink:href="#H"/><use transform="matrix(0.05,0,0,0.05,85,0)" xlink:href="#H"/><use transform="matrix(0.05,0,0,0.05,90,0)" xlink:href="#H"/><use transform="matrix(0.05,0,0,0.05,95,0)" xlink:href="#H"/><use transform="matrix(0.05,0,0,0.05,100,0)" xlink:href="#H"/><use transform="matrix(0.05,0,0,0.05,105,0)" xlink:href="#H"/><use transform="matrix(0.05,0,0,0.05,110,0)" xlink:href="#H"/><use transform="matrix(0.05,0,0,0.05,115,0)" xlink:href="#H"/><use transform="matrix(0.05,0,0,0.05,120,0)" xlink:href="#H"/><use transform="matrix(0.05,0,0,0.05,125,0)" xlink:href="#I"/><use transform="matrix(0.05,0,0,0.05,135,0)" xlink:href="#R"/><use transform="matrix(0.05,0,0,0.05,145,0)" xlink:href="#O"/></g><path fill="#333" d="M143 4C61 4 22-44 18-125c-5-107 100-154 193-111 17 8 29 25 37 43l-32 9c-13-25-37-40-76-40-61 0-88 39-88 99 0 61 29 100 91 101 35 0 62-11 79-27v-45h-74v-28h105v86C228-13 192 4 143 4" id="S"/><use transform="matrix(0.13024691358024662,0,0,0.13024691358024662,0,0)" xlink:href="#S" id="o"/><g id="p"><use transform="matrix(0.05,0,0,0.05,0,0)" xlink:href="#R"/><use transform="matrix(0.05,0,0,0.05,10,0)" xlink:href="#I"/></g><path fill="#333" d="M155-56V0h-30v-56H8v-25l114-167h33v167h35v25h-35zm-30-156c-27 46-58 90-88 131h88v-131" id="T"/><g id="q"><use transform="matrix(0.05,0,0,0.05,0,0)" xlink:href="#I"/><use transform="matrix(0.05,0,0,0.05,10,0)" xlink:href="#T"/><use transform="matrix(0.05,0,0,0.05,20,0)" xlink:href="#O"/><use transform="matrix(0.05,0,0,0.05,30,0)" xlink:href="#H"/><use transform="matrix(0.05,0,0,0.05,35,0)" xlink:href="#H"/><use transform="matrix(0.05,0,0,0.05,40,0)" xlink:href="#H"/><use transform="matrix(0.05,0,0,0.05,45,0)" xlink:href="#H"/><use transform="matrix(0.05,0,0,0.05,50,0)" xlink:href="#H"/><use transform="matrix(0.05,0,0,0.05,55,0)" xlink:href="#H"/><use transform="matrix(0.05,0,0,0.05,60,0)" xlink:href="#H"/><use transform="matrix(0.05,0,0,0.05,65,0)" xlink:href="#H"/><use transform="matrix(0.05,0,0,0.05,70,0)" xlink:href="#H"/><use transform="matrix(0.05,0,0,0.05,75,0)" xlink:href="#H"/><use transform="matrix(0.05,0,0,0.05,80,0)" xlink:href="#H"/><use transform="matrix(0.05,0,0,0.05,85,0)" xlink:href="#H"/><use transform="matrix(0.05,0,0,0.05,90,0)" xlink:href="#H"/><use transform="matrix(0.05,0,0,0.05,95,0)" xlink:href="#H"/><use transform="matrix(0.05,0,0,0.05,100,0)" xlink:href="#H"/><use transform="matrix(0.05,0,0,0.05,105,0)" xlink:href="#H"/><use transform="matrix(0.05,0,0,0.05,110,0)" xlink:href="#H"/><use transform="matrix(0.05,0,0,0.05,115,0)" xlink:href="#H"/><use transform="matrix(0.05,0,0,0.05,120,0)" xlink:href="#H"/><use transform="matrix(0.05,0,0,0.05,125,0)" xlink:href="#H"/><use transform="matrix(0.05,0,0,0.05,130,0)" xlink:href="#I"/><use transform="matrix(0.05,0,0,0.05,140,0)" xlink:href="#T"/><use transform="matrix(0.05,0,0,0.05,150,0)" xlink:href="#O"/></g><path fill="#333" d="M197 0v-115H63V0H30v-248h33v105h134v-105h34V0h-34" id="U"/><use transform="matrix(0.13024691358024662,0,0,0.13024691358024662,0,0)" xlink:href="#U" id="r"/><g id="s"><use transform="matrix(0.05,0,0,0.05,0,0)" xlink:href="#R"/><use transform="matrix(0.05,0,0,0.05,10,0)" xlink:href="#G"/></g><g id="t"><use transform="matrix(0.05,0,0,0.05,0,0)" xlink:href="#I"/><use transform="matrix(0.05,0,0,0.05,10,0)" xlink:href="#O"/><use transform="matrix(0.05,0,0,0.05,20,0)" xlink:href="#G"/><use transform="matrix(0.05,0,0,0.05,30,0)" xlink:href="#H"/><use transform="matrix(0.05,0,0,0.05,35,0)" xlink:href="#H"/><use transform="matrix(0.05,0,0,0.05,40,0)" xlink:href="#H"/><use transform="matrix(0.05,0,0,0.05,45,0)" xlink:href="#H"/><use transform="matrix(0.05,0,0,0.05,50,0)" xlink:href="#H"/><use transform="matrix(0.05,0,0,0.05,55,0)" xlink:href="#H"/><use transform="matrix(0.05,0,0,0.05,60,0)" xlink:href="#H"/><use transform="matrix(0.05,0,0,0.05,65,0)" xlink:href="#H"/><use transform="matrix(0.05,0,0,0.05,70,0)" xlink:href="#H"/><use transform="matrix(0.05,0,0,0.05,75,0)" xlink:href="#H"/><use transform="matrix(0.05,0,0,0.05,80,0)" xlink:href="#H"/><use transform="matrix(0.05,0,0,0.05,85,0)" xlink:href="#H"/><use transform="matrix(0.05,0,0,0.05,90,0)" xlink:href="#H"/><use transform="matrix(0.05,0,0,0.05,95,0)" xlink:href="#H"/><use transform="matrix(0.05,0,0,0.05,100,0)" xlink:href="#H"/><use transform="matrix(0.05,0,0,0.05,105,0)" xlink:href="#H"/><use transform="matrix(0.05,0,0,0.05,110,0)" xlink:href="#H"/><use transform="matrix(0.05,0,0,0.05,115,0)" xlink:href="#H"/><use transform="matrix(0.05,0,0,0.05,120,0)" xlink:href="#H"/><use transform="matrix(0.05,0,0,0.05,125,0)" xlink:href="#H"/><use transform="matrix(0.05,0,0,0.05,130,0)" xlink:href="#I"/><use transform="matrix(0.05,0,0,0.05,140,0)" xlink:href="#O"/><use transform="matrix(0.05,0,0,0.05,150,0)" xlink:href="#G"/></g><path fill="#333" d="M33 0v-248h34V0H33" id="V"/><use transform="matrix(0.13024691358024662,0,0,0.13024691358024662,0,0)" xlink:href="#V" id="u"/><path fill="#333" d="M153-248C145-148 188 4 80 4 36 3 13-21 6-62l32-5c4 25 16 42 43 43 27 0 39-20 39-49v-147H72v-28h81" id="W"/><use transform="matrix(0.13024691358024662,0,0,0.13024691358024662,0,0)" xlink:href="#W" id="v"/><g id="w"><use transform="matrix(0.05,0,0,0.05,0,0)" xlink:href="#I"/><use transform="matrix(0.05,0,0,0.05,10,0)" xlink:href="#O"/><use transform="matrix(0.05,0,0,0.05,20,0)" xlink:href="#R"/><use transform="matrix(0.05,0,0,0.05,30,0)" xlink:href="#H"/><use transform="matrix(0.05,0,0,0.05,35,0)" xlink:href="#H"/><use transform="matrix(0.05,0,0,0.05,40,0)" xlink:href="#H"/><use transform="matrix(0.05,0,0,0.05,45,0)" xlink:href="#H"/><use transform="matrix(0.05,0,0,0.05,50,0)" xlink:href="#H"/><use transform="matrix(0.05,0,0,0.05,55,0)" xlink:href="#H"/><use transform="matrix(0.05,0,0,0.05,60,0)" xlink:href="#H"/><use transform="matrix(0.05,0,0,0.05,65,0)" xlink:href="#H"/><use transform="matrix(0.05,0,0,0.05,70,0)" xlink:href="#H"/><use transform="matrix(0.05,0,0,0.05,75,0)" xlink:href="#H"/><use transform="matrix(0.05,0,0,0.05,80,0)" xlink:href="#H"/><use transform="matrix(0.05,0,0,0.05,85,0)" xlink:href="#H"/><use transform="matrix(0.05,0,0,0.05,90,0)" xlink:href="#H"/><use transform="matrix(0.05,0,0,0.05,95,0)" xlink:href="#H"/><use transform="matrix(0.05,0,0,0.05,100,0)" xlink:href="#H"/><use transform="matrix(0.05,0,0,0.05,105,0)" xlink:href="#H"/><use transform="matrix(0.05,0,0,0.05,110,0)" xlink:href="#H"/><use transform="matrix(0.05,0,0,0.05,115,0)" xlink:href="#H"/><use transform="matrix(0.05,0,0,0.05,120,0)" xlink:href="#H"/><use transform="matrix(0.05,0,0,0.05,125,0)" xlink:href="#H"/><use transform="matrix(0.05,0,0,0.05,130,0)" xlink:href="#I"/><use transform="matrix(0.05,0,0,0.05,140,0)" xlink:href="#O"/><use transform="matrix(0.05,0,0,0.05,150,0)" xlink:href="#R"/></g><path fill="#333" d="M194 0L95-120 63-95V0H30v-248h33v124l119-124h40L117-140 236 0h-42" id="X"/><use transform="matrix(0.13024691358024662,0,0,0.13024691358024662,0,0)" xlink:href="#X" id="x"/><path fill="#333" d="M64 0c3-98 48-159 88-221H18v-27h164v26C143-157 98-101 97 0H64" id="Y"/><g id="y"><use transform="matrix(0.05,0,0,0.05,0,0)" xlink:href="#I"/><use transform="matrix(0.05,0,0,0.05,10,0)" xlink:href="#Y"/><use transform="matrix(0.05,0,0,0.05,20,0)" xlink:href="#Y"/><use transform="matrix(0.05,0,0,0.05,30,0)" xlink:href="#H"/><use transform="matrix(0.05,0,0,0.05,35,0)" xlink:href="#H"/><use transform="matrix(0.05,0,0,0.05,40,0)" xlink:href="#H"/><use transform="matrix(0.05,0,0,0.05,45,0)" xlink:href="#H"/><use transform="matrix(0.05,0,0,0.05,50,0)" xlink:href="#H"/><use transform="matrix(0.05,0,0,0.05,55,0)" xlink:href="#H"/><use transform="matrix(0.05,0,0,0.05,60,0)" xlink:href="#H"/><use transform="matrix(0.05,0,0,0.05,65,0)" xlink:href="#H"/><use transform="matrix(0.05,0,0,0.05,70,0)" xlink:href="#H"/><use transform="matrix(0.05,0,0,0.05,75,0)" xlink:href="#H"/><use transform="matrix(0.05,0,0,0.05,80,0)" xlink:href="#H"/><use transform="matrix(0.05,0,0,0.05,85,0)" xlink:href="#H"/><use transform="matrix(0.05,0,0,0.05,90,0)" xlink:href="#H"/><use transform="matrix(0.05,0,0,0.05,95,0)" xlink:href="#H"/><use transform="matrix(0.05,0,0,0.05,100,0)" xlink:href="#H"/><use transform="matrix(0.05,0,0,0.05,105,0)" xlink:href="#H"/><use transform="matrix(0.05,0,0,0.05,110,0)" xlink:href="#H"/><use transform="matrix(0.05,0,0,0.05,115,0)" xlink:href="#H"/><use transform="matrix(0.05,0,0,0.05,120,0)" xlink:href="#H"/><use transform="matrix(0.05,0,0,0.05,125,0)" xlink:href="#H"/><use transform="matrix(0.05,0,0,0.05,130,0)" xlink:href="#I"/><use transform="matrix(0.05,0,0,0.05,140,0)" xlink:href="#Y"/><use transform="matrix(0.05,0,0,0.05,150,0)" xlink:href="#Y"/></g><path fill="#333" d="M30 0v-248h33v221h125V0H30" id="Z"/><use transform="matrix(0.13024691358024662,0,0,0.13024691358024662,0,0)" xlink:href="#Z" id="z"/><use transform="matrix(0.05,0,0,0.05,0,0)" xlink:href="#I" id="A"/><use transform="matrix(0.05,0,0,0.05,0,0)" xlink:href="#R" id="B"/><path fill="#333" d="M99-251c64 0 84 50 84 122C183-37 130 33 47-8c-14-7-20-23-25-40l30-5c6 39 69 39 84 7 9-19 16-44 16-74-10 22-31 35-62 35-49 0-73-33-73-83 0-54 28-83 82-83zm-1 141c31-1 51-18 51-49 0-36-14-67-51-67-34 0-49 23-49 58 0 34 15 58 49 58" id="aa"/><g id="C"><use transform="matrix(0.05,0,0,0.05,0,0)" xlink:href="#aa"/><use transform="matrix(0.05,0,0,0.05,10,0)" xlink:href="#G"/><use transform="matrix(0.05,0,0,0.05,20,0)" xlink:href="#H"/><use transform="matrix(0.05,0,0,0.05,25,0)" xlink:href="#H"/><use transform="matrix(0.05,0,0,0.05,30,0)" xlink:href="#H"/><use transform="matrix(0.05,0,0,0.05,35,0)" xlink:href="#H"/><use transform="matrix(0.05,0,0,0.05,40,0)" xlink:href="#H"/><use transform="matrix(0.05,0,0,0.05,45,0)" xlink:href="#H"/><use transform="matrix(0.05,0,0,0.05,50,0)" xlink:href="#H"/><use transform="matrix(0.05,0,0,0.05,55,0)" xlink:href="#H"/><use transform="matrix(0.05,0,0,0.05,60,0)" xlink:href="#H"/><use transform="matrix(0.05,0,0,0.05,65,0)" xlink:href="#H"/><use transform="matrix(0.05,0,0,0.05,70,0)" xlink:href="#H"/><use transform="matrix(0.05,0,0,0.05,75,0)" xlink:href="#H"/><use transform="matrix(0.05,0,0,0.05,80,0)" xlink:href="#H"/><use transform="matrix(0.05,0,0,0.05,85,0)" xlink:href="#H"/><use transform="matrix(0.05,0,0,0.05,90,0)" xlink:href="#H"/><use transform="matrix(0.05,0,0,0.05,95,0)" xlink:href="#H"/><use transform="matrix(0.05,0,0,0.05,100,0)" xlink:href="#H"/><use transform="matrix(0.05,0,0,0.05,105,0)" xlink:href="#H"/><use transform="matrix(0.05,0,0,0.05,110,0)" xlink:href="#H"/><use transform="matrix(0.05,0,0,0.05,115,0)" xlink:href="#H"/><use transform="matrix(0.05,0,0,0.05,120,0)" xlink:href="#H"/><use transform="matrix(0.05,0,0,0.05,125,0)" xlink:href="#aa"/><use transform="matrix(0.05,0,0,0.05,135,0)" xlink:href="#G"/></g><path fill="#333" d="M30 0v-248h187v28H63v79h144v27H63v87h162V0H30" id="ab"/><use transform="matrix(0.13024691358024662,0,0,0.13024691358024662,0,0)" xlink:href="#ab" id="D"/><use transform="matrix(0.05,0,0,0.05,0,0)" xlink:href="#M" id="E"/><path fill="#333" d="M23 0v-37h61v-169l-59 37v-38l62-41h46v211h57V0H23" id="ac"/><path fill="#333" d="M138-131c27 9 52 24 51 61 0 53-36 74-89 74S11-19 11-69c0-35 22-54 51-61-78-25-46-121 38-121 51 0 83 19 83 66 0 30-18 49-45 54zm-38-16c24 0 32-13 32-36 1-23-11-34-32-34-22 0-33 12-32 34 0 22 9 36 32 36zm1 116c27 0 37-17 37-43 0-25-13-39-39-39-24 0-37 15-37 40 0 27 11 42 39 42" id="ad"/><path fill="#333" d="M101-251c68 0 84 54 84 127C185-50 166 4 99 4S15-52 14-124c-1-75 17-127 87-127zm-1 216c37-5 36-46 36-89s4-89-36-89c-39 0-36 45-36 89 0 43-3 85 36 89" id="ae"/><g id="F"><use transform="matrix(0.09938271604938267,0,0,0.09938271604938267,0,0)" xlink:href="#ac"/><use transform="matrix(0.09938271604938267,0,0,0.09938271604938267,19.876543209876534,0)" xlink:href="#ad"/><use transform="matrix(0.09938271604938267,0,0,0.09938271604938267,39.75308641975307,0)" xlink:href="#ae"/></g></defs></g></svg>